<svg width="182" height="163" viewBox="0 0 182 163" fill="none" xmlns="http://www.w3.org/2000/svg">
<rect width="182" height="163" rx="36" fill="white"/>
<path d="M117.5 100.875H76.1683L67.68 108.121L59.1917 100.875H41.3125V105.844C41.3125 112.177 45.6871 117.336 51.0968 117.438C51.5999 120.568 52.8172 123.396 54.6495 125.609C57.3595 128.882 61.2993 130.688 65.7422 130.688H93.0703C97.5132 130.688 101.453 128.882 104.163 125.605C105.995 123.392 107.213 120.564 107.716 117.433C110.589 117.382 113.171 115.901 114.962 113.576C116.634 111.348 117.526 108.63 117.5 105.844V100.875ZM59.7383 94.25L67.6738 100.086L75.6797 94.25H117.5V92.5938C117.498 90.6854 116.837 88.8362 115.631 87.3579C114.424 85.8795 112.744 84.8625 110.875 84.4781C110.705 78.3314 108.184 73.1866 103.523 69.5719C99.2129 66.2097 93.4533 64.4375 86.8594 64.4375H71.9531C57.8295 64.4375 48.2625 72.4641 47.9375 84.4781C46.0682 84.8625 44.3886 85.8795 43.1818 87.3579C41.975 88.8362 41.3148 90.6854 41.3125 92.5938V94.25H59.7383Z" fill="#F66632"/>
<path d="M133.872 47.875H118.43L120.276 40.4923L129.508 37.3164L127.438 31.3125L114.602 35.4531L111.602 47.875H81.0625V54.5H84.9443L85.3294 57.8125H86.8594C94.9336 57.8125 102.109 60.0691 107.587 64.3381C110.634 66.6858 113.104 69.699 114.809 73.1473C115.859 75.2867 116.606 77.5616 117.03 79.9069C120.115 81.8063 122.403 84.7643 123.465 88.2278C124.528 91.6913 124.293 95.4232 122.804 98.726C123.676 100.998 124.124 103.41 124.125 105.844C124.125 110.469 122.552 114.877 119.695 118.255C117.926 120.362 115.662 121.994 113.105 123.007C112.233 125.49 110.935 127.802 109.268 129.839C109.024 130.133 108.774 130.42 108.517 130.698H124.125C127.438 130.698 128.887 129.042 129.301 125.936L136.837 54.5104H140.688V47.875H133.872Z" fill="#FFC163" fill-opacity="0.66"/>
</svg>
